<svg width="101" height="40" viewBox="0 0 101 40" fill="none" xmlns="http://www.w3.org/2000/svg">
<path d="M20.9257 4.3562L27.2343 4.3562L27.2343 10.9171M8.30858 4.3562L2 4.3562L2 10.9171M2 24.039L2 30.5999L8.30858 30.5999" stroke="white" stroke-width="2.62437" stroke-linejoin="bevel"/>
<path d="M22.1875 24.0389L22.1875 30.5999L25.3417 30.5999L28.496 30.5999" stroke="white" stroke-width="2.62437" stroke-linejoin="bevel"/>
<path d="M30.8302 18.5278L35.5616 18.5278L35.5616 23.4485M21.3673 18.5278L16.6359 18.5278L16.6359 23.4485M16.6359 33.2899L16.6359 38.2106L21.3673 38.2106M30.8302 38.2106L35.5616 38.2106L35.5616 33.2899" stroke="white" stroke-width="2.62437" stroke-linejoin="bevel"/>
<path d="M51.8988 34C51.4799 34 51.1193 33.8604 50.8168 33.5812C50.5375 33.2786 50.3979 32.918 50.3979 32.4991V11.3123H47.2216C47.0122 11.3123 46.8377 11.2425 46.6981 11.1029C46.5585 10.9633 46.4887 10.7888 46.4887 10.5793V7.99644C46.4887 7.78701 46.5585 7.61249 46.6981 7.47287C46.8377 7.33326 47.0122 7.26345 47.2216 7.26345H53.0855C53.5044 7.26345 53.8534 7.4147 54.1327 7.7172C54.4352 7.99644 54.5864 8.34548 54.5864 8.76433V29.9511H57.7627C57.9721 29.9511 58.1466 30.0209 58.2862 30.1605C58.4259 30.3002 58.4957 30.4747 58.4957 30.6841V33.267C58.4957 33.4764 58.4259 33.651 58.2862 33.7906C58.1466 33.9302 57.9721 34 57.7627 34H51.8988ZM69.5562 34.4538C68.0437 34.4538 66.6475 34.0931 65.3677 33.3717C64.1111 32.6271 63.1106 31.6265 62.3659 30.37C61.6213 29.1134 61.249 27.7522 61.249 26.2862V21.7138C61.249 20.2478 61.6213 18.8865 62.3659 17.63C63.1106 16.3734 64.1111 15.3845 65.3677 14.6631C66.6475 13.9185 68.0437 13.5462 69.5562 13.5462C71.0687 13.5462 72.4532 13.9185 73.7098 14.6631C74.9896 15.3845 76.0018 16.3734 76.7464 17.63C77.4911 18.8865 77.8634 20.2478 77.8634 21.7138V26.2862C77.8634 27.7522 77.4911 29.1134 76.7464 30.37C76.0018 31.6265 74.9896 32.6271 73.7098 33.3717C72.4532 34.0931 71.0687 34.4538 69.5562 34.4538ZM69.5562 30.4049C70.6964 30.4049 71.6621 30.0093 72.4532 29.2181C73.2677 28.4037 73.6749 27.4264 73.6749 26.2862V21.7138C73.6749 20.5736 73.2677 19.6079 72.4532 18.8167C71.6621 18.0023 70.6964 17.5951 69.5562 17.5951C68.416 17.5951 67.4387 18.0023 66.6242 18.8167C65.8331 19.6079 65.4375 20.5736 65.4375 21.7138V26.2862C65.4375 27.4264 65.8331 28.4037 66.6242 29.2181C67.4387 30.0093 68.416 30.4049 69.5562 30.4049ZM64.146 11.801C63.9366 11.801 63.7621 11.7312 63.6225 11.5916C63.4829 11.4519 63.4131 11.2774 63.4131 11.068V7.99644C63.4131 7.78701 63.4829 7.61249 63.6225 7.47287C63.7621 7.33326 63.9366 7.26345 64.146 7.26345H66.8686C67.078 7.26345 67.2525 7.33326 67.3921 7.47287C67.5317 7.61249 67.6016 7.78701 67.6016 7.99644V11.068C67.6016 11.2774 67.5317 11.4519 67.3921 11.5916C67.2525 11.7312 67.078 11.801 66.8686 11.801H64.146ZM72.2787 11.801C72.0693 11.801 71.8948 11.7312 71.7551 11.5916C71.6155 11.4519 71.5457 11.2774 71.5457 11.068V7.99644C71.5457 7.78701 71.6155 7.61249 71.7551 7.47287C71.8948 7.33326 72.0693 7.26345 72.2787 7.26345H75.0012C75.2107 7.26345 75.3852 7.33326 75.5248 7.47287C75.6644 7.61249 75.7342 7.78701 75.7342 7.99644V11.068C75.7342 11.2774 75.6644 11.4519 75.5248 11.5916C75.3852 11.7312 75.2107 11.801 75.0012 11.801H72.2787ZM81.975 34C81.7655 34 81.591 33.9302 81.4514 33.7906C81.3118 33.651 81.242 33.4764 81.242 33.267V14.7329C81.242 14.5235 81.3118 14.349 81.4514 14.2094C81.591 14.0698 81.7655 13.9999 81.975 13.9999H84.6975C84.9069 13.9999 85.0814 14.0698 85.221 14.2094C85.3607 14.349 85.4305 14.5235 85.4305 14.7329V16.3734C86.082 15.4892 86.8499 14.8027 87.7341 14.3141C88.6416 13.8022 89.6306 13.5462 90.701 13.5462C92.0273 13.5462 93.2141 13.8603 94.2612 14.4886C95.3316 15.1169 96.1693 15.9895 96.7743 17.1064C97.3793 18.2233 97.6818 19.4799 97.6818 20.8761V33.267C97.6818 33.4764 97.612 33.651 97.4724 33.7906C97.3328 33.9302 97.1582 34 96.9488 34H94.2263C94.0169 34 93.8424 33.9302 93.7027 33.7906C93.5631 33.651 93.4933 33.4764 93.4933 33.267V21.3996C93.4933 20.1663 93.1792 19.2239 92.5509 18.5724C91.9226 17.8976 91.0384 17.5602 89.8982 17.5602C88.5253 17.5602 87.4316 18.0139 86.6172 18.9214C85.826 19.8057 85.4305 21.0273 85.4305 22.5864V33.267C85.4305 33.4764 85.3607 33.651 85.221 33.7906C85.0814 33.9302 84.9069 34 84.6975 34H81.975Z" fill="white"/>
</svg>
